# xmcd
#
# Track frame offsets: 
#        150
#        16950
#        37353
#        55581
#        69991
#        91368
#        108551
#        128101
#        142653
#        164323
#        184588
#        202138
#
# Disc length: 2972 seconds
#
# Revision: 1
# Processed by: cddbd v1.5.1PL0 Copyright (c) Steve Scherf et al.
# Submitted via: ExactAudioCopy v0.95a5
#
DISCID=a30b9a0c
DTITLE=Various Artist - A Cool Yule Jazz Christmas
DYEAR=2002
DGENRE=Christmas
TTITLE0=Mary Stallings/Santa Claus Is Coming To Town
TTITLE1=Rickey Woodard and Cedar Walton/Rudolph The Red-Nosed Reindeer
TTITLE2=The Gerry Wiggins Trio/Silent Night
TTITLE3=Rosemary Clooney/Christmas Time Is Here
TTITLE4=The Stefan Scaggiari Trio/Angels We Have Heard On High
TTITLE5=The Frank Vignola Quintet/Jingle Bells
TTITLE6=Marlena Shaw/Have Yourself A Merry Little Christmas
TTITLE7=Randy Sandke/It Came Upon A Midnight Clear
TTITLE8=The Gene Harris Quartet/I'll Be Home For Christmas
TTITLE9=Eden Atwood/Let It Snow
TTITLE10=Marian McPartland/God Rest Ye Merry Gentleman
TTITLE11=Scott Hamilton/Christmas Love Song
EXTD=YEAR: 2002
EXTT0=
EXTT1=
EXTT2=
EXTT3=
EXTT4=
EXTT5=
EXTT6=
EXTT7=
EXTT8=
EXTT9=
EXTT10=
EXTT11=
PLAYORDER=
